/* XPM */
static char *image[] = {
"16 16 180 2",
"   c None",
"00 c #7b1403",
"10 c #821403",
"20 c #7d1403",
"30 c #972b04",
"40 c #ad4504",
"50 c #b34502",
"60 c #b34600",
"70 c #b24600",
"80 c #b04001",
"90 c #9d3202",
":0 c #912402",
";0 c #ad4907",
"A0 c #be5207",
"B0 c #d25b08",
"C0 c #d55e0d",
"D0 c #d35a0c",
"E0 c #d4550b",
"F0 c #d3530a",
"G0 c #c24507",
"H0 c #b33f03",
"I0 c #953301",
"J0 c #bb5703",
"K0 c #d8720b",
"L0 c #e2700d",
"M0 c #dd6b0e",
"N0 c #e1730f",
"O0 c #e67b11",
"P0 c #e27a13",
"Q0 c #e77811",
"R0 c #e77a11",
"S0 c #da6b0f",
"T0 c #bc4207",
"U0 c #a43a01",
"V0 c #b85910",
"W0 c #cd6407",
"X0 c #e68714",
"Y0 c #ef8710",
"Z0 c #cf6709",
"a0 c #b1510e",
"b0 c #a75019",
"c0 c #a7380c",
"d0 c #dc6f1b",
"e0 c #e37716",
"f0 c #ea8013",
"g0 c #e47810",
"h0 c #bc4108",
"i0 c #b23d01",
"j0 c #b85217",
"k0 c #b74f08",
"l0 c #ea8907",
"m0 c #faa517",
"n0 c #c38627",
"o0 c #764131",
"p0 c #15397a",
"q0 c #af3605",
"r0 c #c34a08",
"s0 c #d96213",
"t0 c #e87d14",
"u0 c #d4610d",
"v0 c #b03702",
"w0 c #b64a00",
"x0 c #d67206",
"y0 c #f8ae18",
"z0 c #e7a21e",
"01 c #1a396b",
"11 c #154786",
"21 c #cb5b15",
"31 c #d95d0c",
"41 c #ce5510",
"51 c #cd4b08",
"61 c #ca4a07",
"71 c #bf4809",
"81 c #b84001",
"91 c #b64e02",
":1 c #e9a119",
";1 c #ffc62d",
"A1 c #807247",
"B1 c #154b8a",
"C1 c #184b87",
"D1 c #a56a43",
"E1 c #aa4f23",
"F1 c #134a8a",
"G1 c #0f3c7a",
"H1 c #aa3302",
"I1 c #b62c01",
"J1 c #e17811",
"K1 c #ed8713",
"L1 c #d76c0f",
"M1 c #b64701",
"N1 c #b24801",
"O1 c #efc030",
"P1 c #ffd73f",
"Q1 c #415665",
"R1 c #195495",
"S1 c #1f5792",
"T1 c #1e5f9f",
"U1 c #1a5b9c",
"V1 c #114281",
"W1 c #a11f03",
"X1 c #b53c08",
"Y1 c #f28e12",
"Z1 c #e88714",
"a1 c #b34700",
"b1 c #b54e05",
"c1 c #f1bb39",
"d1 c #efc951",
"e1 c #2a466f",
"f1 c #2166a7",
"g1 c #2e75b0",
"h1 c #3a8fca",
"i1 c #3b9bda",
"j1 c #a22d02",
"k1 c #f2ac4d",
"l1 c #e59c37",
"m1 c #e57a14",
"n1 c #e88914",
"o1 c #af3e05",
"p1 c #bc5808",
"q1 c #e3aa31",
"r1 c #e6c754",
"s1 c #5d6f6d",
"t1 c #2468a4",
"u1 c #3d98d6",
"v1 c #4fafe4",
"w1 c #50b8ec",
"x1 c #eea777",
"y1 c #e27229",
"z1 c #e27119",
"02 c #eb8113",
"12 c #e88717",
"22 c #a83307",
"32 c #c06511",
"42 c #c8771e",
"52 c #f5d658",
"62 c #879373",
"72 c #26649f",
"82 c #50b2df",
"92 c #5ebde7",
":2 c #691202",
";2 c #e87a12",
"A2 c #e3791a",
"B2 c #eb8a21",
"C2 c #e17a19",
"D2 c #9c2206",
"E2 c #b75c15",
"F2 c #e1ae41",
"G2 c #cfc064",
"H2 c #2c6197",
"I2 c #55afda",
"J2 c #75caeb",
"K2 c #370302",
"L2 c #9d2602",
"M2 c #e68318",
"N2 c #ef9023",
"O2 c #dc6e17",
"P2 c #911405",
"Q2 c #b15716",
"R2 c #d3a045",
"S2 c #2c5d92",
"T2 c #54a2d2",
"U2 c #7fcbea",
"V2 c #8ad3ef",
"W2 c #89d4f0",
"X2 c #a52d04",
"Y2 c #eb8112",
"Z2 c #594252",
"a2 c #2563a1",
"b2 c #4989bc",
"c2 c #86cbe6",
"d2 c #9edff4",
"e2 c #ab3307",
"f2 c #465076",
"g2 c #53415f",
"h2 c #2b5b90",
"i2 c #2f6195",
"j2 c #336699",
"k2 c #68525b",
"l2 c #4f4667",
"m2 c #da5f14",
"  m2      l2k2j2j2i2h2          ",
"  m2m2g2f2m2e2d2d2c2b2a2Z2      ",
"  m2Y2m2m2Y2X2W2V2U2T2S2R2Q2    ",
"P2O2Y2N2M2Y2L2L2K2J2I2H2G2F2E2  ",
"D2C2N2B2A2;2m2m2:292827262524232",
"2212N202z1y1x1L2w1v1u1t1s1r1q1p1",
"o1n1N2m1l1l1k1j1i1h1g1f1e1d1c1b1",
"a1Z1Y1X1W1L2L2V1U1T1S1R1Q1P1O1N1",
"M1L1K1J1I1H1G1F1E1D1C1B1A1;1:191",
"8171K1K16151413121L21101z0y0x0w0",
"  v0u0K1t0s0r0q0L2p0o0n0m0l0k0j0",
"  i0h0g0f0e0d0c0b0a0Z0Y0X0W0V0  ",
"    U0T0S0R0Q0P0O0N0M0L0K0J0    ",
"      I0H0G0F0E0D0C0B0A0;0      ",
"        :090807060504030        ",
"            20101000            "};
