/* XPM */
static char *image[] = {
"64 64 2 1",
"0 c #ffffff",
"1 c #000000",
"1111111111111111111111111111111111111111111111111111111111111111",
"1111111111111111111111110101000000001010111111111111111111111111",
"1111111111111111111110101000000000000001101111111111111111111111",
"1111111111111111110110000000000000000000001010111111111111111111",
"1111111111111111111000000000000000000000000111101111111111111111",
"1111111111111110100000000000000001000100000000111111111111111111",
"1111111111111101000000000000010000000000000000011011111111111111",
"1111111111110110100001001001000000010000100001001101111111111111",
"1111111111111100000100000000000100000010001000000111011111111111",
"1111111111010100010000010010000001001000000000100110111111111111",
"1111111111111001000001000000101000000000100100000011101111111111",
"1111111101010000001000010010000010100100000010101001110111111111",
"1111111111110101000101000100010000001001010000000010111011111111",
"1111110101010000100000010001000101000000001010101001101110111111",
"1111111111100101001010100100010000101010100000000100111011111111",
"1111110101101000100100001001001010000100010101010010101110111111",
"1111011110100101001001010010010001010010100010010101110111011111",
"1111110111101000100100000100000100001000010101000000111011101111",
"1111011010101010101010100000000000000001001000101101010110111111",
"1110111101101010010001000000000000000000100101010010111011010111",
"1111101011010101001010010000010101000000010100101011011101111111",
"1101101110110010101010101000001000101000001010100101101011010111",
"1110111011011010100100100100010101010100001001010101011101111011",
"1101101101101010010101010000001001001000000101010101101011010111",
"1111011010110101101010010100010100101010001010101010110110111101",
"1010110111011010010101010000001010100100001010010111011011010111",
"1111011010101101101010101000010010010000001010101010101101111011",
"1010110111010110101001001000001010101000010101011010110110101101",
"1101101101101010101010101000010101010000010010101011010101110111",
"1011011010110101010101010100000000000000101010101010101110101101",
"1101101101010110101010100100000000000001010101010101101010110110",
"1011010110101010101010010000000000000101010101010110101101101101",
"1101110101101010101010101000010100000101001010101010110110110111",
"1011011010101010101001010100001010000010101001010101010101011010",
"1101010110101101010101001000010010100000100101010101010110101101",
"1011101010110010101010100100001001000001010101010101011011010111",
"1101011011010101010010010000001010010000010010101010101010111010",
"1011010101010101001001010100010001000000101010010101010101010111",
"1101101101010101010101000000000100101000000101010101010110111011",
"1010110101010101010100101000010010000000010010010101011011010101",
"1111010101010101001010010100001001010100000101010010101010101111",
"1101011010101010100101000000000000001000000000101010101010110101",
"1101101011010101010000000000000001010010000000010101010101011011",
"1110101101010100101011000000000000001001000000101010101011010111",
"1111010101010101001000101001001010100100101010010010101101011111",
"1110110101010101010101000100100000010010010010101010101010101111",
"1111010101010101001000101001001010001001001001010101010101110111",
"1111110110101010100110010010000001000100100101001010101010101111",
"1111101010101001010001001000101010010010010010101001010110111111",
"1111110101010101001100100100010000100100101001001010101010111111",
"1111111010101010100010010010100101001001000100101010101011111111",
"1111111101010101011010101000010000100010010101010101010101111111",
"1111111011010101000100100101001010010100100100101010101111111111",
"1111111110101010110101001001000100100010010010100101010111111111",
"1111111111010101001001010010101001001001010101010101011111111111",
"1111111111110101010100101000010010010101001010101010111111111111",
"1111111111110101010010100101001001001000101001010101110110111111",
"1111111101111101010101010010100100100101010101010111111111111111",
"1111101111101110101010010101010101010101001010101011011111101111",
"1111111111111111101010101001001001001001010101011111111011111111",
"1111111011111111110101010100100101010101010010111111111111011111",
"1111111111011011111110100101010100101010101111111111011111111111",
"1111111111111111111111111010101010100101111111111101111111111111",
"1111111111111111111111111111010101011111111111111111111111111111"};
