/* XPM */
static char *image[] = {
"64 64 2 1",
"0 c #ffffff",
"1 c #000000",
"1111111111111111111111111111111111111111111111111111111111111111",
"1111111111111111111111111111111111111111111111111111111111111111",
"1111111111111111111111111111111111111111111111111111111111111111",
"1111111111111111111111111111111111111111111111111111111111111111",
"1111111111111111111111111111101101111111111111111111111111111111",
"1111111111111111111111111010110110101010111111111111111111111111",
"1111111111111111111111101101111111111111101110101111111111111111",
"1111111111111111111110110111111111111010111011111111111111111111",
"1111111111111111111110111111010101011111101101011111111111111111",
"1111111111111111111011011101111111111111111011110111111111111111",
"1111111111111111111101111111111111111101111111111111111111111111",
"1111111111111111101011111111111111111111111111111111111111111111",
"1111111111111111111111111111111111111111101111110111111111111111",
"1111111111111111101011101111111111111111111111111111111111111111",
"1111111111111111011111111111111111111111110111011111111111111111",
"1111111111111111110111111111111111111111111101111111111111111111",
"1111111111111111011111011111111111111111111111111011111111111111",
"1111111111111111111111111111111111111111110111111111111111111111",
"1111111111111111011011111111111111111111111101111111111111111111",
"1111111111111111111111101111111111111111111111110111111111111111",
"1111111111111111011111111011111111111111110111111111111111111111",
"1111111111111111111011111110111111111111111111011111111111111111",
"1111111111111111011111101111111111111111110111111111111111111111",
"1111111111111111111111111101101011111111111101111111111111111111",
"1111111111111111110111111111111110111111111111111111111111111111",
"1111111111111111111111111110101111101111111111111111111111111111",
"1111111111111111111111111011111010111011111111111111111111111111",
"1111111111111111111101111111111111111110111111111111111111111111",
"1111111111111111111111011111111111010111010111111111111111111111",
"1111111111111111111111111111111111111101111101111111111111111111",
"1111111111111111111111111011111111111111110111011111111111111111",
"1111111111111111111111111111011111111111111111111111111111111111",
"1111111111111111111111111111111011111111111011101111111111111111",
"1111111111111111111111111111111111111111111111111011111111111111",
"1111111111111111111110101011111111011111111111111111111111111111",
"1111111111111111111011111101010111110101111111111111111111111111",
"1111111111111111111101101111111111111111111110111101111111111111",
"1111111111111111101011111111111011111111011111111111111111111111",
"1111111111111111011111111101101110111111110111111111111111111111",
"1111111111111111101111111111111111111111111111111110111111111111",
"1111111111111101011111111111111111111111111111111111111111111111",
"1111111111111111111111111111111011101111111101111111111111111111",
"1111111111111101111111111010101111111111111111111110111111111111",
"1111111111111111111011111111111011111111111110110111111111111111",
"1111111111111010111111110101011101101111111111111111111111111111",
"1111111111111111111111111011111111111111111111011111111111111111",
"1111111111111011111011110111111111111111111111111111011111111111",
"1111111111111110111111111111111110111111111111011111111111111111",
"1111111111111011111111111111111111111111111110111110111111111111",
"1111111111111111111101111011111011111111111111111111111111111111",
"1111111111111101111111111111011111111111111101011111111111111111",
"1111111111111111111111011111111111111111111111111101111111111111",
"1111111111111101111111111111111111111111110101111111111111111111",
"1111111111111111111111101111111111111111111011110111111111111111",
"1111111111111110111111111011111111111111010111111111111111111111",
"1111111111111111111111111110111110111010111111111111111111111111",
"1111111111111110111111111011101011101111111111011111111111111111",
"1111111111111111111110111111111101011011111011111111111111111111",
"1111111111111111110111111111111111111111011111111111111111111111",
"1111111111111111011111110111011111111111111111111111111111111111",
"1111111111111111111111111111111011111011111111111111111111111111",
"1111111111111111111111111111111111111111111111111111111111111111",
"1111111111111111111111111111111111111111111111111111111111111111",
"1111111111111111111111111111111111111111111111111111111111111111"};
