/* XPM */
static char *image[] = {
"24 24 117 2",
"   c None",
"00 c #be5500",
"10 c #bc5401",
"20 c #be5700",
"30 c #f28f2d",
"40 c #f89e40",
"50 c #f9a243",
"60 c #f9a446",
"70 c #f9a74a",
"80 c #e0862d",
"90 c #c86616",
":0 c #f69f43",
";0 c #f38816",
"A0 c #f08211",
"B0 c #ee8214",
"C0 c #f6a64d",
"D0 c #c96a17",
"E0 c #825d3c",
"F0 c #bc5600",
"G0 c #d17829",
"H0 c #f7a349",
"I0 c #f08313",
"J0 c #ef8c25",
"K0 c #f1a857",
"L0 c #b95a0b",
"M0 c #666056",
"N0 c #bd5701",
"O0 c #dc8b3f",
"P0 c #f6a249",
"Q0 c #ee8111",
"R0 c #f4a146",
"S0 c #df9243",
"T0 c #be5703",
"U0 c #bc5803",
"V0 c #bd5703",
"W0 c #be5705",
"X0 c #e69e57",
"Y0 c #f49d41",
"Z0 c #ed8011",
"a0 c #ee8416",
"b0 c #f9ba6e",
"c0 c #cc7427",
"d0 c #de9954",
"e0 c #e6a259",
"f0 c #c05d0c",
"g0 c #efaf6d",
"h0 c #f7a03c",
"i0 c #f89723",
"j0 c #faa740",
"k0 c #fcc988",
"l0 c #e8ae73",
"m0 c #c4671a",
"n0 c #c46518",
"o0 c #f4bc7e",
"p0 c #f9a037",
"q0 c #f99b27",
"r0 c #fbba68",
"s0 c #de9957",
"t0 c #bd5602",
"u0 c #ba5400",
"v0 c #dc9a5d",
"w0 c #fbc789",
"x0 c #f99f30",
"y0 c #f9a131",
"z0 c #f9ca90",
"01 c #c66e26",
"11 c #be5807",
"21 c #d99861",
"31 c #f4c99c",
"41 c #e2a770",
"51 c #f9c587",
"61 c #f9a02e",
"71 c #fbb150",
"81 c #f0c391",
"91 c #bf5d0a",
":1 c #c16312",
";1 c #e4b081",
"A1 c #f3c99d",
"B1 c #c9732c",
"C1 c #bc5601",
"D1 c #dda06b",
"E1 c #fcdbb0",
"F1 c #fdddb2",
"G1 c #fddeb4",
"H1 c #d07c30",
"I1 c #c76d25",
"J1 c #edc29c",
"K1 c #f1c397",
"L1 c #c4671b",
"M1 c #be5803",
"N1 c #bc5703",
"O1 c #61635f",
"P1 c #bd5500",
"Q1 c #edb581",
"R1 c #eab686",
"S1 c #c05d0d",
"T1 c #626460",
"U1 c #a4a8a1",
"V1 c #bd5400",
"W1 c #ba5300",
"X1 c #be5601",
"Y1 c #61635e",
"Z1 c #939691",
"a1 c #b9bcb5",
"b1 c #b8bcb4",
"c1 c #7b7e79",
"d1 c #626461",
"e1 c #646763",
"f1 c #636662",
"g1 c #646560",
"h1 c #636660",
"i1 c #636661",
"j1 c #60625e",
"k1 c #babdb6",
"l1 c #5f615d",
"m1 c #636562",
"n1 c #636560",
"                                                ",
"  n1m1l1l1l1l1m1n1                              ",
"  l1l1k1k1k1k1l1l1                              ",
"  n1m1l1l1l1l1m1n1                              ",
"      l1k1k1j1                                  ",
"      i1j1j1h1                                  ",
"      h1j1j1m1                                  ",
"      j1k1k1l1                                  ",
"      g1l1l1f1e1l1l1l1l1e1                      ",
"    d1l1l1l1l1c1b1k1k1a1Z1Y1        X1W1W1V1    ",
"    l1k1k1k1U1T1l1l1l1l1l1d1      S1R1Q1P1      ",
"    d1l1l1l1O1  N1W1W1W1W1M1    L1K1J1I1        ",
"      i1j1j1h1    H1G1F1E1D1C1B1A1;1:1          ",
"      l1k1k1j1    918171615141312111            ",
"      i1l1l1g1      01z0y0x0w0v0u0              ",
"      g1l1l1i1      t0s0r0q0p0o0n0              ",
"      j1k1k1l1      m0l0k0j0i0h0g0f0            ",
"      h1j1j1i1    t0e0d0c0b0a0Z0Y0X0W0          ",
"    d1l1l1l1O1  V0W1W1U0T0S0R0Z0Q0P0O0N0        ",
"    l1k1k1k1U1T1l1l1l1l1M0L0K0J0Q0I0H0G0F0      ",
"    d1l1l1l1l1c1b1k1k1a1Z1E0D0C0B0A0;0:090      ",
"              e1l1l1l1l1e1  M180706050403020    ",
"                              10W1W1W1W1W1W100  ",
"                                                "};
